<?xml version="1.0" standalone="no"?>
<!DOCTYPE svg PUBLIC "-//W3C//DTD SVG 20010904//EN"
 "http://www.w3.org/TR/2001/REC-SVG-20010904/DTD/svg10.dtd">
<svg version="1.0" xmlns="http://www.w3.org/2000/svg"
 width="1280.000000pt" height="1280.000000pt" viewBox="0 0 1280.000000 1280.000000"
 preserveAspectRatio="xMidYMid meet">
<metadata>
Created by potrace 1.11, written by Peter Selinger 2001-2013
</metadata>
<g transform="translate(0.000000,1280.000000) scale(0.100000,-0.100000)"
fill="#000000" stroke="none">
<path d="M5403 12675 l-123 -125 55 0 c30 0 55 -4 55 -10 0 -5 5 -10 11 -10 5
0 7 5 3 12 -11 18 19 -3 34 -24 9 -13 21 -17 35 -13 17 5 19 4 7 -4 -13 -10
-8 -15 12 -12 4 0 4 -7 1 -16 -4 -10 -2 -14 4 -10 6 4 13 2 15 -3 2 -6 69 55
148 136 80 81 155 156 168 167 12 11 22 24 22 29 0 4 -73 8 -162 8 l-163 0
-122 -125z"/>
<path d="M7192 12591 c117 -115 269 -264 338 -331 69 -67 276 -269 460 -450
184 -181 378 -370 430 -420 84 -82 451 -441 985 -964 99 -97 171 -173 160
-169 -85 31 -212 114 -342 223 -23 19 -63 51 -88 70 -25 19 -67 53 -93 75 -26
22 -63 48 -83 59 -21 11 -44 36 -58 61 -12 23 -41 67 -64 97 -101 133 -431
508 -447 508 -4 0 -37 26 -73 58 -36 31 -78 66 -93 77 -39 28 -176 107 -259
149 -38 19 -105 57 -148 85 -82 52 -359 161 -512 202 -79 21 -297 70 -405 90
-63 12 -221 77 -272 111 -19 13 -54 40 -79 60 -24 19 -60 46 -79 57 l-35 22
170 -6 c94 -3 186 -8 205 -10 19 -2 73 -6 120 -10 47 -4 92 -8 100 -10 8 -2
42 -7 75 -11 33 -3 67 -8 75 -9 8 -2 51 -8 95 -15 44 -6 89 -14 100 -17 11 -2
-20 34 -70 82 -49 48 -117 114 -150 146 -55 54 -65 59 -115 64 -30 3 -73 8
-95 11 -165 19 -726 26 -930 12 -162 -12 -239 -20 -252 -27 -6 -3 -70 -64
-142 -135 -72 -70 -131 -125 -131 -121 0 3 5 16 12 28 10 20 10 21 -6 8 -9 -8
-19 -11 -23 -7 -3 3 -1 6 6 6 17 0 8 53 -10 58 -9 2 -10 0 -4 -5 13 -10 13
-28 2 -40 -5 -4 -8 -3 -7 2 5 24 -1 34 -17 28 -17 -7 -17 -6 0 11 22 22 22 26
-3 21 -12 -2 -21 3 -25 16 -4 10 -13 19 -21 19 -8 0 -12 5 -9 10 3 6 1 10 -5
10 -6 0 -8 5 -5 10 3 6 3 10 -2 11 -4 0 -19 2 -33 4 -73 8 -531 -108 -828
-210 -466 -159 -974 -408 -1322 -646 -9 -6 -34 -23 -57 -37 -83 -54 -168 -115
-171 -124 -2 -4 -8 -8 -13 -8 -9 0 -95 -64 -175 -130 -17 -14 -44 -34 -59 -45
-16 -11 -43 -33 -61 -50 -18 -16 -42 -37 -52 -45 -151 -118 -441 -403 -642
-631 -14 -15 -36 -41 -50 -56 -49 -56 -218 -269 -270 -343 -30 -41 -57 -77
-60 -80 -12 -10 -235 -354 -273 -420 -142 -250 -221 -403 -335 -650 -98 -213
-316 -829 -299 -846 2 -3 85 79 183 181 l179 185 43 108 c138 347 294 666 444
911 23 36 53 86 68 111 44 75 153 235 162 238 4 2 8 8 8 13 0 6 5 15 10 22 6
7 28 37 50 67 22 30 47 64 55 75 9 11 26 33 38 49 207 271 508 592 762 813 99
85 109 94 144 121 19 15 39 32 45 37 6 6 31 26 56 45 25 19 47 37 50 40 3 3
28 22 55 41 28 18 52 37 55 40 23 27 343 236 495 323 55 31 111 64 125 72 61
36 367 185 515 250 176 77 645 237 765 260 14 3 57 14 95 24 134 35 393 85
540 104 272 35 326 40 575 51 l155 6 -30 -19 c-16 -11 -55 -43 -85 -71 -68
-63 -98 -78 -191 -92 -75 -11 -127 -22 -189 -40 -19 -6 -60 -17 -90 -24 -30
-7 -84 -22 -118 -34 -35 -12 -105 -30 -155 -41 -134 -28 -252 -64 -353 -108
-49 -22 -107 -45 -129 -52 -51 -15 -191 -90 -258 -137 -29 -20 -50 -33 -47
-30 3 3 70 71 149 152 79 80 142 147 140 150 -6 5 -190 -49 -394 -117 -69 -23
-71 -25 -286 -243 -120 -121 -268 -272 -329 -335 -62 -63 -262 -268 -445 -455
-183 -187 -386 -395 -451 -462 -66 -66 -257 -262 -426 -435 -168 -172 -366
-374 -438 -448 -73 -74 -279 -285 -459 -469 -179 -183 -375 -384 -436 -446
-60 -62 -257 -263 -437 -446 -179 -184 -377 -386 -438 -449 -62 -63 -188 -192
-281 -287 l-169 -172 0 -173 0 -172 141 144 c162 166 409 419 899 920 190 194
390 399 445 455 55 56 251 256 435 445 184 188 382 391 440 450 160 164 770
787 905 925 66 67 216 221 334 341 129 132 203 202 187 176 -15 -23 -45 -84
-67 -135 -22 -51 -52 -112 -67 -137 -14 -25 -49 -92 -78 -150 -28 -58 -57
-110 -65 -117 -8 -6 -39 -51 -69 -99 -30 -47 -80 -117 -110 -154 -30 -37 -75
-93 -100 -124 -25 -31 -57 -70 -72 -87 -19 -20 -28 -40 -28 -64 0 -39 0 -39
120 -133 132 -103 264 -236 309 -310 23 -37 59 -89 81 -117 54 -66 106 -178
114 -242 8 -63 40 -130 145 -300 86 -141 283 -437 306 -460 8 -8 15 -17 15
-21 -1 -15 -154 -224 -230 -315 -103 -123 -195 -305 -209 -412 -9 -69 -43
-172 -81 -244 -10 -20 -29 -58 -42 -86 -27 -60 -238 -281 -343 -360 -38 -29
-96 -77 -127 -108 -50 -47 -58 -60 -58 -91 0 -38 27 -76 55 -76 8 0 22 -15 31
-32 10 -18 25 -44 34 -58 9 -14 43 -72 75 -130 31 -57 66 -116 77 -130 10 -14
46 -65 79 -115 138 -210 214 -314 294 -407 75 -87 118 -156 130 -211 3 -15 16
-32 28 -38 12 -5 37 -38 55 -73 55 -106 339 -442 436 -514 26 -20 67 -52 90
-69 57 -45 87 -67 211 -150 l107 -73 -133 -64 c-173 -83 -222 -102 -289 -111
-30 -4 -95 -15 -145 -25 -49 -10 -128 -21 -175 -25 -47 -4 -115 -15 -151 -26
-36 -10 -80 -19 -98 -19 -39 0 -66 -26 -92 -88 -11 -26 -28 -63 -39 -83 -11
-19 -36 -85 -57 -145 l-38 -109 -1 -240 c-1 -273 -9 -317 -75 -444 -49 -95
-101 -161 -145 -184 -18 -9 -50 -28 -70 -42 -20 -14 -47 -25 -60 -25 -61 0
-86 -88 -39 -135 14 -15 36 -25 52 -25 42 0 226 -108 353 -206 25 -19 56 -42
70 -51 14 -9 46 -48 72 -87 101 -153 211 -312 232 -336 12 -14 44 -58 71 -99
28 -42 65 -83 87 -97 21 -13 49 -41 62 -62 35 -56 199 -205 302 -275 27 -18
72 -49 99 -68 53 -37 100 -66 273 -166 212 -123 401 -210 502 -232 30 -7 73
-19 95 -28 51 -19 286 -63 339 -63 23 0 91 -11 151 -25 116 -26 178 -60 285
-155 l45 -40 -140 6 c-143 5 -220 10 -290 19 -22 2 -69 7 -105 10 -36 3 -76 8
-90 10 -14 2 -45 7 -70 10 -52 7 -154 23 -190 31 -19 4 -1 -18 70 -86 52 -51
120 -116 150 -145 63 -62 54 -60 355 -82 207 -15 841 -7 940 12 11 2 36 4 54
4 31 1 51 17 173 139 76 75 138 140 138 143 0 4 -17 3 -37 -1 -21 -5 -63 -11
-93 -15 -30 -3 -66 -8 -80 -10 -14 -3 -50 -7 -80 -10 -30 -3 -75 -7 -100 -10
-77 -8 -180 -15 -314 -20 l-130 -6 20 22 c71 79 218 134 500 188 249 48 257
50 426 115 37 14 75 30 85 35 10 6 52 24 93 41 104 44 336 159 364 181 22 18
172 119 198 135 12 7 -270 -284 -337 -347 -29 -28 -29 -29 -5 -24 14 3 50 12
80 21 30 9 84 26 120 36 36 11 101 33 146 49 44 16 86 29 92 29 11 0 148 137
567 565 66 68 278 284 470 481 193 196 391 399 440 450 50 51 241 247 426 436
185 188 383 390 439 448 56 58 252 258 435 445 183 187 381 390 440 450 59 61
266 272 460 470 194 198 394 403 445 455 50 52 166 170 256 262 l164 167 0
173 0 172 -152 -156 c-165 -169 -685 -701 -888 -908 -115 -117 -597 -610 -891
-912 -193 -197 -761 -777 -894 -913 -66 -68 -247 -253 -402 -411 -810 -830
-843 -863 -843 -845 0 13 62 90 110 136 6 6 95 99 199 207 201 209 263 282
355 418 32 47 70 103 86 125 54 78 157 292 164 341 4 27 13 58 21 68 9 11 15
41 15 68 0 39 -5 54 -25 73 -13 14 -30 25 -38 25 -7 0 -31 18 -52 41 -22 22
-83 76 -136 119 -53 42 -137 116 -186 164 l-90 86 -11 90 c-9 78 -20 109 -82
242 -39 84 -84 167 -99 183 -31 33 -104 151 -145 232 -14 29 -85 121 -156 204
-72 84 -128 154 -126 157 3 2 15 -3 28 -12 31 -22 84 -20 108 4 24 24 26 77 5
107 -15 21 -14 25 18 60 72 81 272 445 318 576 22 64 38 90 82 136 31 32 77
89 103 127 60 88 86 119 212 251 56 59 119 132 140 160 29 41 43 53 65 53 43
0 67 32 67 90 0 71 -21 90 -101 90 l-61 0 -110 108 c-61 59 -130 136 -154 172
-25 36 -60 84 -79 108 -21 26 -35 55 -35 71 0 14 -11 70 -24 123 -27 103 -140
336 -241 493 -28 44 -69 109 -90 145 -59 98 -118 175 -213 279 -155 169 -246
255 -304 291 -173 105 -278 198 -278 245 0 29 -19 52 -52 65 -161 63 -356 146
-369 157 -9 7 -56 27 -105 44 -48 17 -97 37 -109 44 -11 7 -30 16 -43 20 -24
7 -130 76 -188 122 -109 87 -357 332 -405 400 -16 24 -51 59 -77 78 -91 70
-162 144 -162 170 0 36 -33 65 -75 65 -30 0 -43 -8 -82 -50 -26 -28 -55 -63
-65 -78 -10 -15 -29 -43 -43 -62 -14 -19 -36 -51 -49 -70 -32 -47 -176 -187
-256 -249 -36 -27 -87 -67 -114 -88 -27 -21 -74 -61 -105 -89 -153 -138 -188
-160 -372 -238 -58 -24 -169 -76 -247 -115 -78 -39 -153 -71 -167 -71 -27 0
-80 -48 -90 -81 -6 -17 -101 -92 -195 -154 -59 -39 -208 -151 -241 -182 l-26
-24 -39 48 c-22 26 -61 80 -87 118 -26 39 -60 88 -75 111 -16 22 -42 62 -57
90 -16 27 -47 78 -71 114 -65 101 -114 204 -114 241 0 18 -13 76 -29 129 -62
203 -73 248 -83 325 -12 101 -11 544 2 610 5 28 14 84 20 125 7 45 21 92 36
117 13 23 31 77 39 119 8 43 31 114 51 158 55 124 64 146 64 160 0 17 54 104
98 159 18 22 42 58 53 78 23 47 58 98 101 151 56 68 299 310 373 371 104 86
196 159 233 185 46 33 200 112 216 112 8 0 45 14 83 31 123 56 205 82 373 118
47 10 92 21 100 24 133 44 337 98 430 112 47 8 114 19 150 26 36 7 130 12 210
13 123 1 150 -2 180 -17 95 -50 189 -78 430 -127 52 -11 109 -24 125 -29 17
-6 62 -18 100 -27 137 -33 425 -148 475 -189 8 -7 80 -48 159 -91 220 -118
307 -181 449 -324 93 -94 232 -260 248 -297 8 -18 39 -69 70 -115 32 -46 82
-134 112 -196 30 -62 58 -115 63 -118 5 -3 9 -13 9 -23 0 -10 8 -29 18 -42 10
-13 27 -49 37 -79 9 -30 24 -70 31 -88 8 -18 14 -38 14 -44 0 -6 14 -40 31
-76 l32 -65 -8 -116 c-5 -64 -8 -136 -8 -161 1 -25 1 -77 2 -117 0 -86 19
-113 77 -113 39 0 94 44 94 75 0 18 235 263 293 306 44 32 75 72 114 147 17
33 34 52 45 52 19 0 52 28 60 50 2 7 65 -48 145 -126 137 -135 652 -638 877
-858 144 -140 763 -745 878 -858 49 -49 91 -88 93 -88 6 0 -88 258 -156 430
-39 96 4 51 -649 690 -177 173 -380 371 -450 440 -70 69 -277 271 -460 450
-183 179 -385 377 -450 440 -65 63 -272 266 -461 451 -189 185 -402 394 -474
464 -71 70 -276 270 -455 445 -179 175 -372 364 -430 420 -58 56 -164 160
-236 231 l-132 129 -172 0 -171 0 213 -209z m-2465 -406 c0 -8 -4 -12 -9 -9
-5 3 -6 10 -3 15 9 13 12 11 12 -6z m-162 -164 c-3 -6 -11 -11 -16 -11 -5 0
-4 6 3 14 14 16 24 13 13 -3z m2259 -3276 c25 -8 74 -17 108 -20 35 -4 90 -15
123 -25 33 -11 110 -31 170 -46 61 -15 143 -42 184 -61 41 -18 100 -41 130
-49 103 -29 279 -136 372 -225 30 -30 116 -94 190 -144 75 -51 161 -118 197
-155 160 -165 253 -271 297 -340 26 -41 58 -91 71 -111 39 -58 143 -259 207
-402 25 -54 61 -177 94 -312 15 -66 30 -215 39 -405 6 -117 -17 -427 -33 -453
-3 -5 -16 -55 -28 -111 -29 -128 -91 -298 -145 -401 -24 -44 -57 -107 -75
-140 -54 -101 -127 -218 -161 -256 l-32 -37 -38 27 c-21 14 -45 34 -54 43 -8
9 -42 31 -75 49 -33 18 -87 47 -120 66 -33 18 -73 33 -90 33 -16 0 -39 7 -49
15 -11 8 -27 15 -35 15 -20 0 -87 35 -161 84 -30 20 -62 36 -70 36 -9 0 -34
18 -55 41 -22 22 -56 49 -75 59 -19 10 -59 39 -88 64 -30 25 -59 46 -67 46 -7
0 -34 16 -61 35 -27 20 -91 61 -142 91 -93 55 -100 60 -160 114 -18 17 -37 30
-43 30 -6 0 -39 20 -73 44 -35 25 -88 55 -117 67 -30 13 -75 39 -101 59 -25
19 -81 60 -124 90 -42 30 -84 62 -93 71 -9 9 -23 20 -32 25 -9 5 -41 38 -72
73 -45 50 -57 70 -57 97 0 34 -28 74 -51 74 -7 0 -35 20 -63 44 -28 23 -100
83 -161 131 -60 49 -155 125 -209 169 -111 90 -199 155 -296 216 -36 23 -85
57 -110 76 -25 18 -61 45 -81 58 -20 14 -85 70 -145 125 -204 188 -229 210
-306 265 -43 30 -95 64 -116 75 -23 12 -44 32 -51 48 -6 16 -25 41 -41 57 -17
15 -30 36 -30 46 0 29 -99 147 -164 195 -14 11 -40 34 -56 50 l-30 30 27 23
c16 12 60 44 98 70 116 78 225 163 248 193 11 16 44 39 71 51 28 13 89 42 136
67 140 72 271 126 335 139 33 7 80 20 105 28 25 9 65 20 90 25 25 6 68 17 95
25 78 22 231 44 325 45 47 1 99 5 115 10 49 13 554 0 609 -16z m-2430 -892
c25 -21 68 -56 97 -78 28 -22 65 -61 81 -87 16 -27 33 -48 36 -48 10 0 165
-145 236 -220 22 -23 61 -56 88 -73 26 -18 51 -40 54 -49 5 -18 25 -33 156
-122 116 -78 144 -96 151 -96 4 0 15 -8 26 -17 52 -49 81 -72 134 -107 31 -21
57 -41 57 -45 0 -4 37 -37 83 -74 82 -66 108 -85 202 -151 28 -19 65 -49 83
-66 18 -16 38 -30 44 -30 6 0 26 -13 45 -30 18 -16 39 -30 45 -30 6 0 26 -11
44 -25 24 -18 35 -36 39 -63 19 -115 27 -122 145 -122 l90 0 0 -65 c0 -83 18
-105 87 -105 45 0 49 -2 122 -79 42 -44 101 -109 131 -145 65 -79 209 -222
300 -299 87 -73 329 -228 410 -261 109 -46 222 -87 289 -107 35 -10 71 -25 80
-32 9 -8 58 -37 108 -66 160 -89 258 -160 378 -274 l60 -57 -30 -26 c-16 -14
-63 -53 -104 -87 -40 -34 -101 -87 -135 -118 -74 -68 -169 -133 -241 -164 -29
-13 -56 -28 -59 -34 -3 -5 -35 -26 -71 -46 -36 -20 -65 -40 -65 -45 0 -31
-210 -150 -265 -150 -12 0 -48 -9 -81 -20 -32 -12 -90 -28 -127 -36 -38 -8
-80 -19 -94 -25 -13 -5 -41 -9 -61 -9 -20 -1 -64 -8 -97 -16 -103 -27 -230
-35 -505 -32 -224 3 -271 6 -304 21 -21 9 -56 17 -77 17 -52 0 -173 19 -231
36 -26 8 -53 14 -61 14 -29 0 -274 99 -352 142 -73 41 -310 158 -345 171 -45
17 -243 146 -344 224 -22 18 -63 49 -91 70 -67 51 -146 134 -272 283 -103 123
-120 147 -190 265 -133 223 -181 332 -207 470 -8 39 -21 87 -29 108 -41 96
-59 273 -61 582 -1 178 2 235 13 254 7 13 16 63 19 110 2 47 11 98 18 113 8
15 14 43 14 62 0 19 15 74 34 123 42 110 66 193 66 227 0 47 81 191 159 283
66 77 96 116 126 163 32 49 94 130 100 130 2 0 24 -17 49 -37z m4040 -3170
c11 -16 55 -66 96 -113 101 -115 129 -153 174 -235 21 -38 54 -93 72 -121 19
-28 34 -59 34 -69 0 -9 18 -58 41 -109 22 -50 43 -113 46 -141 3 -27 12 -62
19 -77 8 -15 14 -45 14 -66 0 -22 7 -59 15 -82 8 -23 15 -60 15 -82 0 -22 5
-49 11 -61 31 -56 42 -573 15 -672 -8 -27 -19 -79 -26 -115 -6 -36 -23 -92
-37 -125 -14 -33 -31 -85 -38 -116 -28 -124 -93 -275 -161 -374 -19 -27 -34
-55 -34 -62 0 -7 -4 -13 -9 -13 -17 0 -101 -113 -101 -136 0 -13 -13 -38 -28
-56 -15 -18 -36 -46 -46 -62 -38 -61 -138 -176 -179 -207 -23 -18 -64 -54 -92
-80 -27 -26 -77 -64 -110 -85 -33 -20 -117 -75 -187 -121 -136 -90 -279 -164
-473 -245 -256 -107 -262 -109 -541 -162 -73 -13 -163 -34 -201 -45 -62 -19
-97 -21 -289 -21 -200 0 -223 2 -259 20 -22 11 -48 20 -60 20 -11 0 -54 9 -95
20 -41 11 -95 20 -120 20 -58 0 -274 37 -322 55 -20 8 -72 23 -115 34 -44 11
-106 33 -139 47 -130 59 -210 97 -224 109 -8 7 -55 34 -104 60 -49 26 -101 55
-115 65 -14 10 -57 37 -96 60 -106 63 -191 131 -209 167 -8 18 -28 40 -43 50
-15 10 -37 28 -50 40 -12 13 -26 23 -31 23 -9 0 -90 90 -190 211 -52 62 -168
234 -200 294 -27 52 -103 229 -113 263 -6 18 -19 38 -30 45 -14 9 -19 23 -19
54 0 49 -14 90 -40 118 -11 11 -26 54 -35 95 -9 41 -22 84 -29 95 -8 13 -11
27 -6 36 16 27 6 338 -14 429 -28 132 -18 286 27 410 66 181 90 230 113 230
11 0 47 9 80 20 32 11 77 20 99 20 22 0 81 7 130 15 332 53 317 49 516 141 75
34 165 81 199 103 l63 40 166 -85 c91 -47 175 -93 186 -103 11 -10 38 -28 60
-41 22 -13 61 -42 87 -64 43 -37 70 -60 203 -166 24 -19 63 -48 86 -65 22 -16
71 -57 109 -90 37 -33 106 -94 153 -135 107 -93 225 -208 255 -248 12 -17 22
-42 22 -56 0 -40 33 -66 83 -66 24 0 50 6 58 13 17 13 81 120 119 200 22 44
71 94 215 222 31 28 64 54 73 59 10 5 51 41 92 81 42 39 100 88 130 108 30 21
75 53 100 72 79 61 112 80 270 159 85 43 164 86 175 95 11 10 45 34 75 53 30
20 64 46 75 58 11 12 38 31 60 42 74 38 207 129 271 186 115 103 277 241 283
242 2 0 13 -12 25 -27z"/>
<path d="M8330 12039 c207 -203 213 -207 350 -264 96 -40 471 -235 595 -310
211 -126 584 -385 655 -454 9 -9 33 -29 55 -46 22 -16 46 -36 55 -45 9 -8 43
-37 75 -65 155 -133 389 -366 550 -550 52 -59 190 -228 200 -244 6 -9 12 -18
15 -21 19 -18 110 -141 110 -149 0 -5 4 -11 9 -13 12 -4 207 -296 274 -410 29
-49 64 -110 80 -136 15 -26 39 -69 53 -97 13 -27 29 -57 35 -65 17 -27 176
-363 212 -450 127 -304 267 -738 313 -970 3 -14 7 -33 10 -42 5 -17 10 -42 20
-93 3 -16 14 -75 24 -130 27 -142 35 -192 46 -280 3 -33 8 -68 10 -78 2 -10 6
-53 10 -95 3 -42 8 -86 10 -97 24 -123 24 -929 0 -1075 -3 -14 -7 -59 -11
-100 -3 -41 -10 -102 -15 -135 -5 -33 -12 -82 -16 -110 -3 -27 -8 -54 -11 -60
-3 -5 61 58 141 140 137 141 146 152 147 190 0 22 2 49 4 60 26 139 26 898 0
1120 -2 17 -6 59 -10 95 -8 79 -12 109 -19 157 -3 21 -8 61 -12 88 -3 28 -7
58 -10 67 -3 9 -70 81 -149 160 -80 79 -145 149 -145 156 0 7 5 10 12 6 7 -5
8 -3 3 6 -6 10 -4 12 7 7 12 -4 15 0 13 19 -2 18 1 22 10 14 15 -12 25 -3 18
16 -3 9 1 14 12 14 10 0 13 -5 9 -12 -4 -7 -3 -8 4 -4 9 5 9 13 2 26 -9 16 -8
18 6 13 12 -4 15 -3 10 5 -4 7 -1 12 8 12 9 0 15 6 13 13 -1 6 4 11 11 10 6
-2 12 4 12 13 0 9 5 12 13 8 9 -6 9 -4 -1 8 -10 13 -10 18 -1 24 7 4 9 3 6 -3
-4 -6 -1 -13 6 -16 20 -8 12 46 -29 195 -72 266 -173 551 -287 813 -57 131
-234 494 -246 505 -3 3 -17 25 -30 50 -13 25 -55 98 -95 163 -39 65 -76 127
-82 138 -10 18 -140 212 -157 234 -4 5 -50 69 -103 140 -53 72 -103 135 -110
141 -8 6 -14 16 -14 21 0 5 -10 19 -22 30 -13 11 -34 35 -48 54 -14 18 -29 37
-35 43 -5 6 -25 29 -44 51 -110 130 -329 355 -471 485 -45 41 -89 82 -98 91
-10 9 -46 40 -82 70 -36 30 -74 62 -85 72 -82 69 -359 276 -406 303 -10 6 -27
18 -37 27 -10 10 -24 17 -30 17 -7 0 -12 4 -12 9 0 5 -8 11 -17 15 -10 3 -52
28 -93 55 -337 223 -807 448 -1241 595 l-164 56 205 -201z"/>
<path d="M12321 7882 c-8 -15 -8 -23 0 -28 8 -4 7 -9 -2 -15 -12 -7 -12 -12 0
-31 13 -21 13 -22 -2 -9 -12 9 -17 10 -17 2 0 -7 -5 -9 -12 -5 -9 5 -8 2 1 -9
12 -15 12 -17 -2 -12 -8 4 -18 1 -23 -6 -5 -8 -3 -10 7 -4 11 7 12 6 2 -7 -7
-8 -9 -19 -5 -24 4 -4 -1 -2 -10 5 -10 7 -15 18 -11 24 3 6 1 7 -6 3 -6 -4 -8
-13 -4 -19 4 -7 8 -16 8 -22 1 -12 -20 -35 -31 -35 -5 0 -3 5 4 12 7 7 12 16
12 22 0 5 -7 1 -15 -10 -14 -18 2 -36 283 -311 l297 -292 3 165 2 166 -160
157 c-88 86 -194 190 -234 230 -70 69 -75 72 -85 53z"/>
<path d="M620 7211 c-73 -76 -136 -145 -141 -152 -19 -35 -34 -330 -34 -659 0
-357 8 -496 45 -785 6 -44 13 -100 16 -125 2 -25 7 -53 10 -62 4 -13 135 -147
298 -306 2 -1 -5 40 -15 90 -26 129 -66 373 -74 448 -6 57 -15 143 -20 195
-27 273 -27 873 -1 1080 2 17 7 66 11 109 4 43 9 88 11 100 2 12 7 46 10 76 3
30 10 72 14 93 4 20 7 37 5 37 -1 0 -62 -62 -135 -139z"/>
<path d="M0 5526 l0 -169 168 -164 c310 -304 431 -421 440 -427 5 -3 8 6 6 20
-2 21 0 23 12 13 7 -6 11 -16 7 -23 -3 -6 -2 -7 2 -3 12 10 15 37 5 37 -4 0
-10 7 -14 15 -5 13 -2 14 15 4 11 -6 23 -8 27 -5 3 3 0 6 -6 6 -7 0 -12 7 -12
15 0 8 5 15 11 15 5 0 7 -6 3 -12 -6 -10 -4 -10 8 0 9 7 15 24 13 38 -2 21 0
22 13 12 9 -8 13 -8 9 -2 -4 6 2 22 13 34 11 13 20 26 20 31 0 6 -146 152
-421 420 -53 52 -146 143 -207 203 l-112 110 0 -168z m674 -652 c3 -8 2 -12
-4 -9 -6 3 -10 10 -10 16 0 14 7 11 14 -7z"/>
<path d="M871 4877 c0 -10 -5 -16 -10 -12 -5 3 -12 1 -15 -4 -4 -5 -1 -13 5
-17 8 -5 9 -3 4 6 -6 9 -4 11 4 6 12 -8 7 -20 -10 -22 -5 -1 -13 -2 -19 -3 -5
0 -10 -6 -10 -12 0 -5 5 -7 12 -3 7 4 8 3 4 -5 -5 -8 -12 -9 -20 -2 -8 7 -12
4 -13 -10 -1 -12 2 -17 10 -12 7 3 3 -3 -7 -15 -14 -16 -22 -19 -32 -11 -16
13 -13 -13 3 -33 10 -11 8 -14 -9 -15 -12 -1 -26 -7 -32 -14 -8 -9 -7 -10 6
-6 10 3 20 2 23 -4 4 -5 1 -8 -7 -7 -7 2 -12 -2 -11 -9 2 -8 -4 -10 -15 -6
-15 6 -16 5 -2 -12 14 -17 13 -18 -2 -13 -11 5 -15 2 -13 -10 1 -9 -1 -19 -6
-22 -7 -5 103 -342 156 -475 80 -203 310 -694 334 -715 3 -3 17 -25 30 -50 13
-25 55 -98 95 -163 39 -65 76 -127 82 -138 10 -17 140 -212 157 -234 4 -5 57
-77 119 -160 61 -82 114 -152 117 -155 4 -3 25 -27 46 -55 22 -27 47 -56 55
-65 8 -9 35 -40 60 -69 125 -147 446 -468 570 -570 14 -12 36 -32 50 -44 87
-81 369 -295 530 -402 58 -39 107 -73 110 -76 17 -18 364 -217 515 -294 166
-84 403 -195 419 -195 3 0 25 -9 49 -19 76 -34 180 -73 327 -122 l145 -48
-209 203 c-206 201 -210 203 -300 242 -198 83 -512 248 -716 375 -338 210
-615 421 -904 689 -77 71 -376 378 -376 386 0 2 -10 14 -22 27 -13 13 -42 45
-64 73 -23 27 -67 79 -98 116 -31 37 -56 72 -56 77 0 5 -3 11 -8 13 -11 5
-112 137 -112 147 0 5 -4 11 -9 13 -12 4 -207 296 -274 410 -29 49 -64 110
-80 136 -15 26 -39 70 -53 97 -13 28 -29 57 -35 65 -29 46 -195 408 -252 550
-87 222 -193 540 -230 695 -4 17 -5 17 -6 2z"/>
<path d="M11944 4545 c-99 -102 -185 -198 -191 -213 -7 -15 -33 -81 -59 -147
-25 -66 -50 -124 -55 -129 -5 -6 -9 -16 -9 -23 0 -8 -43 -102 -97 -211 -53
-108 -97 -199 -97 -202 -1 -7 -112 -205 -149 -265 -114 -189 -308 -475 -404
-595 -79 -99 -149 -186 -154 -190 -3 -3 -35 -39 -70 -80 -143 -167 -370 -395
-538 -540 -36 -30 -72 -62 -80 -70 -76 -71 -352 -278 -501 -376 -58 -38 -107
-71 -110 -74 -5 -6 -201 -123 -305 -182 -338 -193 -796 -381 -1230 -504 -55
-16 -102 -31 -105 -35 -3 -3 -13 -5 -23 -3 -9 1 -15 -2 -11 -7 3 -5 10 -7 15
-4 5 4 12 -1 15 -10 6 -13 8 -14 15 -3 6 9 9 6 9 -12 1 -25 1 -25 10 -3 12 28
20 30 13 3 -5 -19 5 -26 31 -21 5 1 3 -6 -5 -15 -12 -16 -12 -17 4 -11 9 3 17
2 17 -3 0 -6 6 -9 13 -7 6 1 11 -4 10 -10 -2 -7 2 -13 8 -13 5 0 7 -5 4 -10
-4 -6 -3 -10 2 -9 21 4 33 -2 33 -17 0 -8 5 -12 10 -9 6 4 7 12 4 18 -4 7 4 2
18 -10 13 -13 30 -23 37 -23 21 0 316 99 452 151 289 111 625 270 874 416 173
100 525 334 593 393 7 6 43 34 80 63 37 28 76 59 87 68 11 10 56 48 100 85 87
73 95 80 204 181 124 114 250 244 405 413 76 84 231 276 330 410 132 179 130
176 182 258 23 37 47 72 51 77 16 18 158 257 220 370 77 139 149 284 208 416
26 57 53 118 60 134 22 47 89 221 124 320 18 50 36 99 41 110 12 29 80 248 85
274 2 13 7 31 10 42 4 10 4 19 2 19 -3 0 -85 -83 -183 -185z"/>
<path d="M1160 4483 c50 -141 80 -219 121 -323 39 -96 -4 -51 649 -690 177
-173 380 -371 450 -440 70 -69 276 -270 456 -446 181 -177 381 -372 444 -434
63 -62 275 -268 470 -460 195 -191 402 -394 460 -450 58 -56 260 -254 450
-440 190 -186 401 -393 470 -459 69 -67 175 -171 236 -231 l112 -110 172 0
172 0 -93 91 c-52 50 -249 243 -438 428 -365 357 -408 399 -912 892 -178 174
-385 376 -459 449 -74 72 -270 264 -435 425 -165 161 -381 373 -480 470 -198
194 -733 717 -909 889 -144 140 -763 745 -878 859 -49 48 -91 87 -93 87 -2 0
14 -48 35 -107z"/>
<path d="M7527 603 c-52 -54 -146 -150 -207 -213 -61 -63 -173 -177 -247 -252
l-137 -138 170 0 170 0 239 246 c139 142 239 252 237 261 -2 8 1 12 7 9 5 -4
12 -3 15 2 2 4 -7 9 -20 10 -17 1 -23 -2 -18 -10 5 -7 3 -8 -5 -4 -9 6 -8 13
6 29 15 18 15 20 1 8 -20 -15 -42 -5 -34 16 3 8 2 12 -3 9 -4 -3 -17 2 -27 10
-16 13 -16 15 -2 10 10 -3 20 -1 23 5 4 5 3 8 -2 7 -12 -4 -73 26 -73 35 0 5
6 5 13 2 6 -4 4 0 -5 8 -24 19 -23 26 2 20 11 -3 20 0 20 6 0 6 -7 8 -17 4
-11 -4 -14 -3 -9 5 16 27 -6 7 -97 -85z m126 -9 c-4 -12 -8 -13 -14 -3 -9 15
-2 32 11 24 5 -3 6 -13 3 -21z"/>
<path d="M7970 540 c0 -5 5 -10 11 -10 5 0 7 5 4 10 -3 6 -8 10 -11 10 -2 0
-4 -4 -4 -10z"/>
</g>
</svg>
